<svg width="120" height="40" fill="none" xmlns="http://www.w3.org/2000/svg"><rect x=".5" y=".5" width="119" height="39" rx="6.5" fill="#0C0D10"/><path d="M81.527 19.2v2.292H80.09v1.502h1.436V28.1c0 1.744.788 2.44 2.772 2.44.349 0 .68-.04.971-.09v-1.486c-.249.024-.406.041-.68.041-.889 0-1.279-.415-1.279-1.361v-4.649h1.96v-1.502h-1.96V19.2h-1.784ZM90.324 30.664c2.64 0 4.258-1.768 4.258-4.698 0-2.914-1.626-4.69-4.258-4.69-2.64 0-4.266 1.776-4.266 4.69 0 2.93 1.618 4.698 4.266 4.698Zm0-1.585c-1.552 0-2.424-1.137-2.424-3.113 0-1.959.872-3.105 2.424-3.105 1.544 0 2.424 1.146 2.424 3.105 0 1.967-.88 3.113-2.424 3.113ZM95.967 30.49h1.785v-5.337c0-1.27.955-2.125 2.308-2.125.315 0 .846.058.996.107v-1.76c-.191-.05-.532-.074-.797-.074-1.179 0-2.183.647-2.44 1.536h-.133V21.45h-1.719v9.04ZM105.487 22.795c1.32 0 2.183.921 2.225 2.34h-4.566c.1-1.41 1.021-2.34 2.341-2.34Zm2.216 5.254c-.332.706-1.07 1.096-2.15 1.096-1.427 0-2.349-1.004-2.407-2.59v-.1h6.384v-.622c0-2.839-1.52-4.557-4.035-4.557-2.548 0-4.167 1.834-4.167 4.723s1.586 4.665 4.176 4.665c2.067 0 3.511-.996 3.918-2.615h-1.719ZM69.823 27.152c.138 2.22 1.988 3.639 4.74 3.639 2.943 0 4.784-1.488 4.784-3.863 0-1.867-1.05-2.9-3.596-3.493l-1.368-.335c-1.617-.38-2.271-.887-2.271-1.773 0-1.118 1.015-1.85 2.538-1.85 1.445 0 2.443.715 2.624 1.859h1.875c-.112-2.09-1.953-3.562-4.474-3.562-2.71 0-4.516 1.471-4.516 3.682 0 1.824 1.023 2.908 3.269 3.433l1.6.387c1.643.387 2.366.955 2.366 1.902 0 1.1-1.136 1.9-2.684 1.9-1.66 0-2.813-.748-2.977-1.926h-1.91ZM51.336 21.301c-1.229 0-2.291.614-2.84 1.644h-.132V21.45h-1.718v12.045h1.785V29.12h.14c.474.955 1.495 1.52 2.781 1.52 2.283 0 3.736-1.802 3.736-4.674 0-2.872-1.453-4.665-3.752-4.665Zm-.507 7.736c-1.494 0-2.432-1.178-2.432-3.063 0-1.892.938-3.071 2.44-3.071 1.511 0 2.416 1.154 2.416 3.063 0 1.918-.905 3.071-2.424 3.071ZM61.333 21.301c-1.229 0-2.291.614-2.84 1.644h-.132V21.45h-1.718v12.045h1.784V29.12h.141c.474.955 1.495 1.52 2.781 1.52 2.283 0 3.736-1.802 3.736-4.674 0-2.872-1.453-4.665-3.752-4.665Zm-.507 7.736c-1.494 0-2.432-1.178-2.432-3.063 0-1.892.938-3.071 2.44-3.071 1.511 0 2.416 1.154 2.416 3.063 0 1.918-.905 3.071-2.424 3.071ZM43.444 30.49h2.047L41.01 18.075h-2.073L34.453 30.49h1.979l1.144-3.295h4.732l1.136 3.295Zm-3.57-10.16h.146l1.798 5.247h-3.751l1.806-5.248ZM35.65 8.71v5.99h2.163c1.784 0 2.818-1.1 2.818-3.013 0-1.885-1.042-2.976-2.818-2.976H35.65Zm.93.848h1.129c1.241 0 1.976.788 1.976 2.141 0 1.374-.723 2.154-1.976 2.154H36.58V9.558ZM43.796 14.787c1.32 0 2.13-.884 2.13-2.349 0-1.457-.814-2.345-2.13-2.345-1.32 0-2.133.888-2.133 2.345 0 1.465.809 2.35 2.133 2.35Zm0-.793c-.776 0-1.212-.568-1.212-1.556 0-.98.436-1.552 1.212-1.552.772 0 1.212.573 1.212 1.552 0 .984-.44 1.556-1.212 1.556ZM52.817 10.18h-.892l-.805 3.45h-.07l-.93-3.45h-.855l-.93 3.45h-.067l-.809-3.45h-.905L47.8 14.7h.918l.93-3.329h.07l.934 3.329h.925l1.241-4.52ZM53.845 14.7h.892v-2.644c0-.705.42-1.145 1.08-1.145.66 0 .975.36.975 1.087V14.7h.892v-2.926c0-1.075-.556-1.681-1.565-1.681-.68 0-1.129.303-1.349.805h-.066v-.718h-.86v4.52ZM59.09 14.7h.892V8.416h-.893V14.7ZM63.338 14.787c1.32 0 2.129-.884 2.129-2.349 0-1.457-.814-2.345-2.13-2.345-1.32 0-2.133.888-2.133 2.345 0 1.465.81 2.35 2.134 2.35Zm0-.793c-.776 0-1.212-.568-1.212-1.556 0-.98.436-1.552 1.212-1.552.772 0 1.212.573 1.212 1.552 0 .984-.44 1.556-1.212 1.556ZM68.126 14.023c-.486 0-.839-.236-.839-.643 0-.398.282-.61.905-.652l1.104-.07v.378c0 .56-.498.987-1.17.987Zm-.229.752c.594 0 1.088-.258 1.357-.71h.071v.635h.86v-3.088c0-.954-.64-1.519-1.773-1.519-1.025 0-1.756.498-1.847 1.274h.863c.1-.32.444-.502.942-.502.61 0 .926.27.926.747v.39l-1.224.07c-1.075.067-1.681.536-1.681 1.35 0 .826.635 1.353 1.506 1.353ZM73.212 14.775c.623 0 1.15-.295 1.42-.789h.07v.714h.855V8.416h-.892v2.482h-.067c-.244-.498-.767-.793-1.386-.793-1.141 0-1.876.905-1.876 2.333 0 1.432.727 2.337 1.876 2.337Zm.253-3.869c.748 0 1.216.594 1.216 1.536 0 .946-.464 1.532-1.216 1.532-.755 0-1.207-.577-1.207-1.536 0-.95.456-1.532 1.207-1.532ZM81.344 14.787c1.32 0 2.129-.884 2.129-2.349 0-1.457-.814-2.345-2.13-2.345-1.32 0-2.133.888-2.133 2.345 0 1.465.81 2.35 2.134 2.35Zm0-.793c-.776 0-1.212-.568-1.212-1.556 0-.98.436-1.552 1.212-1.552.772 0 1.212.573 1.212 1.552 0 .984-.44 1.556-1.212 1.556ZM84.654 14.7h.892v-2.644c0-.705.42-1.145 1.08-1.145.66 0 .975.36.975 1.087V14.7h.892v-2.926c0-1.075-.556-1.681-1.564-1.681-.681 0-1.13.303-1.35.805h-.066v-.718h-.859v4.52ZM92.603 9.055v1.146h-.718v.751h.718v2.553c0 .871.394 1.22 1.386 1.22.174 0 .34-.02.486-.046v-.743c-.125.013-.204.021-.34.021-.445 0-.64-.208-.64-.68v-2.325h.98v-.751h-.98V9.055h-.892ZM95.672 14.7h.893v-2.64c0-.684.407-1.145 1.137-1.145.63 0 .967.365.967 1.087V14.7h.892v-2.918c0-1.075-.593-1.685-1.556-1.685-.68 0-1.158.303-1.378.81h-.07v-2.49h-.885V14.7ZM102.78 10.852c.66 0 1.092.461 1.113 1.17h-2.283c.05-.705.511-1.17 1.17-1.17Zm1.109 2.628c-.166.352-.536.548-1.075.548-.714 0-1.175-.503-1.204-1.295v-.05h3.192v-.311c0-1.42-.76-2.279-2.017-2.279-1.275 0-2.084.917-2.084 2.362 0 1.444.793 2.332 2.088 2.332 1.033 0 1.755-.498 1.959-1.307h-.859ZM24.77 20.3a4.988 4.988 0 0 1 2.357-4.151 5.128 5.128 0 0 0-3.992-2.158c-1.679-.176-3.307 1.005-4.163 1.005-.872 0-2.19-.987-3.608-.958a5.359 5.359 0 0 0-4.473 2.728c-1.934 3.348-.491 8.27 1.361 10.976.927 1.325 2.01 2.805 3.428 2.753 1.387-.058 1.905-.885 3.58-.885 1.658 0 2.144.885 3.59.852 1.489-.024 2.426-1.332 3.32-2.67a10.963 10.963 0 0 0 1.52-3.092 4.824 4.824 0 0 1-2.92-4.4ZM22.038 12.211a4.873 4.873 0 0 0 1.115-3.49 4.958 4.958 0 0 0-3.208 1.66 4.679 4.679 0 0 0-1.143 3.36 4.148 4.148 0 0 0 3.236-1.53Z" fill="#fff"/><rect x=".5" y=".5" width="119" height="39" rx="6.5" stroke="#737373"/></svg>