<svg width="133" height="40" fill="none" xmlns="http://www.w3.org/2000/svg"><rect x=".5" y=".5" width="132" height="39" rx="4.5" fill="#000"/><path d="M45.396 25.412h3.495l-1.251-3.35a24.44 24.44 0 0 1-.509-1.534c-.15.495-.315 1-.492 1.517l-1.243 3.367Zm4.093 1.59h-4.683l-1.146 3.132h-2.058l4.585-11.697h1.946l4.69 11.697h-2.164l-1.17-3.132ZM58.896 28.007c.406-.546.61-1.344.61-2.393 0-.974-.169-1.68-.505-2.12a1.61 1.61 0 0 0-1.344-.657 2.17 2.17 0 0 0-1.074.274c-.328.183-.64.428-.937.735v4.666c.2.097.431.173.695.23.264.056.525.085.783.085.775 0 1.365-.274 1.772-.82Zm-5.243-4.452c0-.646-.022-1.356-.065-2.131h1.873c.07.36.118.73.145 1.106.775-.845 1.663-1.268 2.664-1.268.581 0 1.12.147 1.615.44.495.294.895.756 1.199 1.389.304.632.456 1.436.456 2.41 0 1.017-.174 1.886-.521 2.607-.347.721-.833 1.267-1.457 1.639-.624.371-1.346.557-2.164.557-.592 0-1.176-.1-1.752-.299v3.6l-1.993.17v-10.22ZM67.993 28.007c.406-.546.61-1.344.61-2.393 0-.974-.169-1.68-.505-2.12a1.61 1.61 0 0 0-1.344-.657 2.17 2.17 0 0 0-1.074.274c-.328.183-.64.428-.936.735v4.666c.199.097.43.173.694.23a3.7 3.7 0 0 0 .783.085c.775 0 1.366-.274 1.772-.82Zm-5.243-4.452c0-.646-.022-1.356-.065-2.131h1.873c.07.36.118.73.145 1.106.775-.845 1.663-1.268 2.664-1.268.582 0 1.12.147 1.615.44.495.294.895.756 1.199 1.389.304.632.456 1.436.456 2.41 0 1.017-.174 1.886-.52 2.607-.348.721-.834 1.267-1.458 1.639-.624.371-1.345.557-2.164.557-.592 0-1.176-.1-1.751-.299v3.6l-1.994.17v-10.22ZM74.3 29.581a4.838 4.838 0 0 1-1.986-2.046c-.463-.888-.694-1.938-.694-3.148 0-1.314.266-2.43.799-3.347a5.144 5.144 0 0 1 2.175-2.066c.918-.46 1.947-.69 3.089-.69.672 0 1.314.073 1.925.221.61.149 1.18.352 1.707.61l-.508 1.534c-1.06-.506-2.072-.76-3.035-.76-.813 0-1.525.175-2.136.522-.61.347-1.086.857-1.425 1.53-.339.672-.508 1.485-.508 2.437 0 .835.13 1.575.39 2.22a3.281 3.281 0 0 0 1.236 1.534c.563.377 1.272.565 2.128.565.387 0 .775-.032 1.162-.096.387-.065.75-.16 1.09-.283v-2.365h-2.705v-1.55h4.642v4.924c-.667.312-1.368.552-2.103.719a9.889 9.889 0 0 1-2.192.25c-1.173 0-2.19-.238-3.051-.715ZM87.538 28.52a3.19 3.19 0 0 0 1.017-.743v-1.614a12.864 12.864 0 0 0-1.332-.09c-.824 0-1.393.134-1.708.4-.315.267-.472.626-.472 1.078 0 .43.114.75.343.957.229.207.54.31.932.31.398 0 .805-.099 1.22-.298Zm1.194 1.614a7.576 7.576 0 0 1-.137-1.154 3.849 3.849 0 0 1-1.199.933c-.492.255-1.048.383-1.667.383-.5 0-.957-.098-1.368-.295a2.281 2.281 0 0 1-.981-.888c-.242-.395-.364-.878-.364-1.449 0-.845.304-1.519.913-2.022.608-.503 1.623-.755 3.043-.755.533 0 1.06.038 1.583.113v-.17c0-.769-.165-1.311-.493-1.626-.328-.315-.8-.472-1.412-.472-.426 0-.88.062-1.365.185-.484.124-.91.272-1.275.444l-.315-1.453c.355-.161.823-.31 1.404-.444a8.15 8.15 0 0 1 1.841-.202c.754 0 1.394.115 1.921.343.528.23.94.622 1.236 1.179.296.557.444 1.307.444 2.248v3.463c0 .361.02.908.064 1.64h-1.873ZM92.07 28.044V17.75l1.986-.162v10.1c0 .37.063.633.19.787.126.153.327.23.601.23.124 0 .3-.03.525-.09l.234 1.43a3.387 3.387 0 0 1-.69.181 4.674 4.674 0 0 1-.771.069c-1.383 0-2.075-.75-2.075-2.252ZM97.035 28.044V17.75l1.986-.162v10.1c0 .37.063.633.19.787.126.153.327.23.601.23.124 0 .299-.03.525-.09l.234 1.43a3.388 3.388 0 0 1-.69.181 4.674 4.674 0 0 1-.771.069c-1.383 0-2.075-.75-2.075-2.252ZM106.794 24.766c-.04-.694-.213-1.215-.525-1.562-.312-.347-.731-.52-1.251-.52-.507 0-.928.174-1.264.524-.336.35-.557.87-.659 1.558h3.699Zm1.944 1.267h-5.699c.091 1.825.96 2.737 2.608 2.737.408 0 .827-.05 1.256-.15.427-.099.838-.232 1.23-.399l.437 1.364c-.976.474-2.069.71-3.285.71-.928 0-1.707-.174-2.342-.524a3.358 3.358 0 0 1-1.434-1.51c-.32-.656-.48-1.447-.48-2.373 0-.963.17-1.792.509-2.486.339-.695.811-1.225 1.416-1.59.605-.367 1.304-.55 2.096-.55.824 0 1.509.193 2.061.578.552.384.96.897 1.227 1.537.267.641.4 1.349.4 2.124v.532ZM110.247 23.611c0-.478-.024-1.207-.066-2.187h1.866a22.125 22.125 0 0 1 .152 1.687c.232-.382.459-.704.683-.965.224-.26.485-.473.784-.638a2.08 2.08 0 0 1 1.021-.246c.307 0 .568.033.79.097l-.251 1.728a2.193 2.193 0 0 0-.645-.089c-.467 0-.878.12-1.227.36-.349.239-.723.633-1.123 1.182v5.594h-1.984v-6.523ZM116.597 33.699a4.804 4.804 0 0 1-.718-.174l.363-1.453c.133.037.304.074.509.109.203.035.398.052.582.052.882 0 1.544-.568 1.984-1.703l.13-.323-3.213-8.783h2.139l1.616 4.908c.261.84.432 1.483.506 1.93.152-.63.328-1.26.534-1.89l1.64-4.948h2.008l-3.203 8.823c-.301.835-.629 1.507-.979 2.019-.349.51-.762.89-1.237 1.138-.477.247-1.051.371-1.725.371-.334 0-.646-.025-.936-.076ZM41.594 7.301h3.554l-.1.858h-2.413v1.663h2.275v.804h-2.275v1.842h2.542l-.087.866h-3.496V7.301ZM47.598 10.255l-1.875-2.954h1.183l1.27 2.17 1.338-2.17h1.15l-1.858 2.916 2.013 3.117h-1.2L48.18 10.96l-1.462 2.375h-1.15l2.029-3.079ZM54.198 9.995c.222-.201.333-.486.333-.852 0-.373-.113-.64-.34-.804-.226-.164-.559-.246-.997-.246h-.567v2.141c.261.042.461.063.6.063.425 0 .749-.1.97-.302ZM51.585 7.3h1.625c.764 0 1.349.156 1.754.467.406.31.609.76.609 1.35 0 .4-.091.75-.273 1.047a1.797 1.797 0 0 1-.76.688c-.325.16-.7.24-1.121.24a4.35 4.35 0 0 1-.792-.084v2.325h-1.042V7.301ZM56.602 7.301h1.042v5.142h2.495l-.087.891h-3.45V7.301ZM64.423 12.299c.291-.196.51-.465.654-.808.145-.343.217-.736.217-1.178 0-.433-.064-.819-.192-1.158a1.72 1.72 0 0 0-.612-.81c-.281-.202-.642-.302-1.084-.302-.422 0-.78.102-1.075.306a1.875 1.875 0 0 0-.662.82 2.85 2.85 0 0 0-.221 1.136c0 .436.07.827.208 1.17.139.345.351.618.638.818.286.2.64.3 1.062.3.42 0 .775-.098 1.067-.294Zm-2.7.74a2.522 2.522 0 0 1-1.013-1.065c-.233-.457-.35-.988-.35-1.594 0-.636.124-1.192.373-1.669a2.627 2.627 0 0 1 1.075-1.104c.468-.26 1.02-.39 1.656-.39.609 0 1.132.126 1.571.378.439.251.774.605 1.004 1.06.231.456.346.984.346 1.584 0 .647-.125 1.21-.377 1.687-.251.478-.61.846-1.075 1.104-.465.259-1.012.388-1.64.388-.605 0-1.129-.127-1.57-.38ZM69.181 10.155c.253 0 .477-.049.67-.148.195-.098.347-.237.455-.416.109-.18.163-.387.163-.623 0-.303-.096-.525-.288-.665-.191-.14-.47-.21-.837-.21h-.754v2.062h.591Zm-1.633-2.854h1.887c.69 0 1.21.138 1.565.413.354.274.531.668.531 1.179 0 .32-.064.6-.192.843a1.866 1.866 0 0 1-.475.594 2.112 2.112 0 0 1-.583.342l1.854 2.662h-1.208l-1.57-2.391h-.767v2.391h-1.042V7.301ZM72.96 7.301h3.555l-.1.858h-2.413v1.663h2.275v.804h-2.275v1.842h2.542l-.088.866H72.96V7.301ZM80.381 7.301h1.042v6.033H80.38V7.301ZM84.177 8.172h-1.871l.092-.871h4.696l-.096.87h-1.78v5.163h-1.041V8.172ZM94.315 12.299a1.78 1.78 0 0 0 .654-.808c.144-.343.216-.736.216-1.178 0-.433-.064-.819-.191-1.158a1.722 1.722 0 0 0-.613-.81c-.28-.202-.642-.302-1.083-.302-.423 0-.78.102-1.075.306a1.872 1.872 0 0 0-.663.82 2.847 2.847 0 0 0-.22 1.136c0 .436.069.827.208 1.17.139.345.351.618.637.818.286.2.64.3 1.063.3.42 0 .775-.098 1.067-.294Zm-2.7.74a2.52 2.52 0 0 1-1.013-1.065c-.233-.457-.35-.988-.35-1.594 0-.636.124-1.192.373-1.669A2.623 2.623 0 0 1 91.7 7.607c.468-.26 1.02-.39 1.656-.39.608 0 1.132.126 1.571.378.439.251.773.605 1.004 1.06.23.456.346.984.346 1.584 0 .647-.126 1.21-.377 1.687-.252.478-.61.846-1.075 1.104-.465.259-1.012.388-1.64.388-.605 0-1.129-.127-1.57-.38ZM97.44 7.301h1.195l2.984 4.675a20.204 20.204 0 0 1-.037-1.23V7.302h.965v6.033h-1.157l-3.03-4.75c.03.54.046 1.017.046 1.434v3.316h-.967V7.301Z" fill="#fff"/><path fillRude="evenodd" clipRule="evenodd" d="M26.942 7.333H15.864c-5.219 0-7.128 1.909-7.128 7.128v11.078c0 5.219 1.91 7.127 7.128 7.127h11.075c5.218 0 7.13-1.908 7.13-7.127V14.461c0-5.219-1.908-7.128-7.127-7.128Z" fill="#fff"/><path d="M19.79 22.025h1.015l-.51-1.185-.506 1.185Zm-.25.598-.302.69h-.686l1.46-3.31h.592l1.453 3.31h-.704l-.298-.69H19.54Zm11.04.687h.663v-3.308h-.663v3.308Zm-2.639-1.421h1.222v-.603h-1.222v-.678h1.774v-.604h-2.437v3.308h2.501v-.603h-1.838v-.82Zm-2.635.39-.752-2.277h-.548l-.752 2.278-.732-2.276h-.715l1.154 3.31h.556l.754-2.174.752 2.174h.562l1.151-3.31h-.697l-.733 2.276Zm-7.766-.381c0 .538-.268.826-.753.826-.489 0-.758-.296-.758-.85v-1.87h-.671v1.894c0 .932.517 1.466 1.42 1.466.91 0 1.433-.545 1.433-1.494v-1.868h-.671v1.896Zm-3.786-1.896h.672v3.312h-.672V21.97h-1.518v1.345h-.671v-3.312h.671v1.336h1.518v-1.336ZM21.402 15.785a4.222 4.222 0 0 1-4.216-4.217h.595a3.625 3.625 0 0 0 3.621 3.621 3.625 3.625 0 0 0 3.621-3.62h.596a4.222 4.222 0 0 1-4.217 4.216Z" fill="#100F0D"/><rect x=".5" y=".5" width="132" height="39" rx="4.5" stroke="#737373"/></svg>